# xmcd CD database file
#
# Track frame offsets:
#	150
#	14652
#	27430
#	41650
#	55202
#	69752
#	82705
#	97195
#	111297
#	125015
#	139167
#	153737
#	166607
#	180422
#	193392
#	208142
#	221677
#	234617
#	248965
#	264090
#
# Disc length: 3722 seconds
#
# Revision: 0
# Processed by: cddbd v1.4PL0 Copyright (c) Steve Scherf et al.
# Submitted via: CDex 1.50
#
DISCID=200e8814
DTITLE=Various Artist - Mississippi String Bands Volume Two
DYEAR=1900
DGENRE=Old-Time
TTITLE0=Freeny's Barn Dance Band - Sullivan's Hollow
TTITLE1=Nations Brothers - Magnolia Two-Step
TTITLE2=Narmour and Smith - Carroll County Blues
TTITLE3=Leake County Revelers - Molly Put The Kettle On
TTITLE4=Freeny's Barn Dance Band - Sally Anne
TTITLE5=Nations Brothers - Sales Tax Toddle
TTITLE6=Leake County Revelers - Lonesome Blues
TTITLE7=Narmour and Smith - Charleston #1
TTITLE8=Clardy And Clements - Little Black Mustache
TTITLE9=Freeny's Barn Dance Band - Croquet Habit
TTITLE10=Newton County Hillbillies - Going To The Wedding To Get Some Cake
TTITLE11=Nations Brothers - Bankhead Blues
TTITLE12=Leake County Revelers - Wenesday Night Waltz
TTITLE13=Narmour and Smith - Captain George, Has Your Money Come?
TTITLE14=Freeny's Barn Dance Band - Mississippi Square Dance
TTITLE15=Leake County Revelers - Johnson Gal
TTITLE16=Nations Brothers - Negro Suppertime
TTITLE17=Newton County Hillbillies - Little Princess' Footsteps
TTITLE18=Freeny's Barn Dance Band - Don't You Remember The Time
TTITLE19=Narmour and Smith - Mississippi Breakdown
EXTD=
EXTT0=
EXTT1=
EXTT2=
EXTT3=
EXTT4=
EXTT5=
EXTT6=
EXTT7=
EXTT8=
EXTT9=
EXTT10=
EXTT11=
EXTT12=
EXTT13=
EXTT14=
EXTT15=
EXTT16=
EXTT17=
EXTT18=
EXTT19=
PLAYORDER=
